<?xml version="1.0" standalone="no"?>
<!DOCTYPE svg PUBLIC "-//W3C//DTD SVG 20010904//EN"
 "http://www.w3.org/TR/2001/REC-SVG-20010904/DTD/svg10.dtd">
<svg version="1.0" xmlns="http://www.w3.org/2000/svg"
 width="256.000000pt" height="256.000000pt" viewBox="0 0 256.000000 256.000000"
 preserveAspectRatio="xMidYMid meet">

<g transform="translate(0.000000,256.000000) scale(0.100000,-0.100000)"
fill="#000000" stroke="none">
<path d="M737 2103 c-4 -3 -7 -370 -7 -813 0 -690 2 -809 14 -819 16 -14 31
-8 101 39 78 51 459 296 910 583 268 170 265 168 265 198 0 19 -7 32 -22 40
-13 7 -66 40 -118 74 -94 61 -208 134 -640 410 -121 77 -274 175 -341 218
-114 72 -146 86 -162 70z"/>
</g>
</svg>
